<svg width="467" height="390" viewBox="0 0 467 390" fill="none" xmlns="http://www.w3.org/2000/svg">
<path d="M227.8 3.06669C221 9.86669 215.133 33.6 211.667 67.8667C210.6 79.2 209.667 91.8667 209.667 96.1334C209.667 100.4 209.133 105.2 208.467 106.933C207.8 108.933 197.8 116.4 182.067 127.067C168.2 136.4 156.467 144 156.067 144C155.667 144 154.6 140.267 153.667 135.867C151.667 126.533 147.4 120.4 143.8 121.733C142.6 122.267 140.467 125.2 139 128.267C136.867 133.333 135.8 137.867 132.867 156.933C132.333 160.8 129.933 162.933 112.733 174.8C102.067 182.267 92.4666 188.4 91.2666 188.533C89.9333 188.667 88.7333 186.533 87.5333 182.267C81.6666 159.467 72.2 168 67.8 200.133L66.8666 206.267L38.7333 225.467C2.46665 250.267 1.79998 250.933 0.733312 259.333C-0.466688 270.4 -0.466687 270.4 35 259.867C97 241.467 204.067 210.667 205.933 210.667C207.533 210.667 208.067 215.067 208.733 234.933C209.667 260.933 213.4 316.667 214.333 320C214.733 321.067 214.467 322.667 213.933 323.467C213.4 324.267 204.6 330.533 194.333 337.333C184.067 344.133 168.867 354.533 160.733 360.267L145.667 370.8V379.467C145.667 389.467 145.8 389.467 158.467 385.467C169.667 381.867 216.467 368.267 219.4 367.733C221.4 367.467 222.467 368.933 224.333 375.067C227.4 384.8 230.333 389.333 233.667 389.333C237 389.333 240.733 383.467 243 374.933C243.933 371.467 245.133 368.267 245.533 367.733C246.067 367.2 253.267 368.8 261.667 371.467C287.4 379.333 317.667 388 319.667 388C322.2 388 322.467 373.467 320.067 370.4C318.067 368 295.533 352.267 269.933 335.6L252.333 324L253 318.933C255.533 299.733 259 244.8 259 222.933C259 212.533 259.267 210.667 261.133 210.667C262.333 210.667 286.2 217.333 314.2 225.467C342.067 233.6 383.667 245.6 406.333 252.133C429.133 258.667 451.4 265.333 455.933 266.8C460.6 268.267 464.867 269.2 465.667 268.667C467.133 267.733 467.4 258.533 466.2 253.733C465.667 251.867 454.067 243.2 432.867 228.533C415 216.267 400.333 205.867 400.333 205.333C400.333 201.467 395.933 180.4 394.2 176.133C391.933 170.4 388.067 168.133 385 170.667C383.933 171.6 382.067 175.733 380.733 179.867C379.533 184 378.067 187.867 377.533 188.533C376.467 189.6 372.2 186.933 347.4 169.733C334.467 160.8 334.467 160.667 333 148.533C330.333 124.533 322.6 114.4 316.467 126.933C315 130.133 313.4 135.2 312.867 138.4C312.333 141.733 311.4 143.867 310.467 143.6C308.867 142.933 263.8 112.933 260.2 110.133C258.6 108.8 257.933 104.533 257.267 89.8667C255.267 48.1334 247.933 11.7334 239.4 2.40002C236.467 -0.933313 231.533 -0.666646 227.8 3.06669Z" fill="#1882C3"/>
</svg>
